<mxfile host="app.diagrams.net" modified="2022-09-01T03:04:55.098Z" agent="5.0 (Macintosh; Intel Mac OS X 10_15_7) AppleWebKit/537.36 (KHTML, like Gecko) Chrome/104.0.0.0 Safari/537.36" etag="wwNFDe6tm7_ktuA4KJCE" version="20.2.7" type="github">
  <diagram id="S_zyglWxiq05939B7iMg" name="第 1 页">
    <mxGraphModel dx="1426" dy="1938" grid="1" gridSize="10" guides="1" tooltips="1" connect="1" arrows="1" fold="1" page="1" pageScale="1" pageWidth="827" pageHeight="1169" math="0" shadow="0">
      <root>
        <mxCell id="0" />
        <mxCell id="1" parent="0" />
        <mxCell id="8mhyo6az43vuWWTLtNTB-46" value="" style="edgeStyle=orthogonalEdgeStyle;rounded=1;orthogonalLoop=1;jettySize=auto;html=1;fontSize=20;strokeWidth=2;" edge="1" parent="1" source="8mhyo6az43vuWWTLtNTB-38" target="8mhyo6az43vuWWTLtNTB-45">
          <mxGeometry relative="1" as="geometry" />
        </mxCell>
        <mxCell id="8mhyo6az43vuWWTLtNTB-38" value="" style="rounded=1;whiteSpace=wrap;html=1;glass=0;fontSize=14;fillColor=none;dashed=1;" vertex="1" parent="1">
          <mxGeometry x="200" y="60" width="210" height="130" as="geometry" />
        </mxCell>
        <mxCell id="8mhyo6az43vuWWTLtNTB-20" value="" style="group" vertex="1" connectable="0" parent="1">
          <mxGeometry x="190" y="270" width="230" height="400" as="geometry" />
        </mxCell>
        <mxCell id="8mhyo6az43vuWWTLtNTB-14" value="" style="rounded=1;whiteSpace=wrap;html=1;dashed=1;fontSize=16;fillColor=none;" vertex="1" parent="8mhyo6az43vuWWTLtNTB-20">
          <mxGeometry x="25" width="180" height="360" as="geometry" />
        </mxCell>
        <mxCell id="8mhyo6az43vuWWTLtNTB-3" value="&lt;font style=&quot;font-size: 16px;&quot;&gt;BERT-Base Input&lt;/font&gt;" style="rounded=1;whiteSpace=wrap;html=1;" vertex="1" parent="8mhyo6az43vuWWTLtNTB-20">
          <mxGeometry x="45" y="290" width="140" height="60" as="geometry" />
        </mxCell>
        <mxCell id="8mhyo6az43vuWWTLtNTB-4" value="BERT&lt;sup style=&quot;&quot;&gt;&lt;font style=&quot;font-size: 12px;&quot;&gt;l&lt;/font&gt;&lt;/sup&gt;" style="rounded=1;whiteSpace=wrap;html=1;fontSize=16;fillColor=#ffe6cc;strokeColor=#d79b00;" vertex="1" parent="8mhyo6az43vuWWTLtNTB-20">
          <mxGeometry x="45" y="200" width="140" height="60" as="geometry" />
        </mxCell>
        <mxCell id="8mhyo6az43vuWWTLtNTB-12" value="" style="edgeStyle=orthogonalEdgeStyle;rounded=0;orthogonalLoop=1;jettySize=auto;html=1;fontSize=16;strokeWidth=2;" edge="1" parent="8mhyo6az43vuWWTLtNTB-20" source="8mhyo6az43vuWWTLtNTB-3" target="8mhyo6az43vuWWTLtNTB-4">
          <mxGeometry relative="1" as="geometry" />
        </mxCell>
        <mxCell id="8mhyo6az43vuWWTLtNTB-6" value="&lt;font style=&quot;font-size: 16px;&quot;&gt;CDM/CDW&lt;/font&gt;" style="rounded=1;whiteSpace=wrap;html=1;fontSize=12;" vertex="1" parent="8mhyo6az43vuWWTLtNTB-20">
          <mxGeometry x="45" y="70" width="140" height="40" as="geometry" />
        </mxCell>
        <mxCell id="8mhyo6az43vuWWTLtNTB-7" value="&lt;font style=&quot;font-size: 16px;&quot;&gt;MHSA&lt;/font&gt;" style="rounded=1;whiteSpace=wrap;html=1;fontSize=12;" vertex="1" parent="8mhyo6az43vuWWTLtNTB-20">
          <mxGeometry x="45" y="20" width="140" height="40" as="geometry" />
        </mxCell>
        <mxCell id="8mhyo6az43vuWWTLtNTB-8" value="" style="rounded=1;whiteSpace=wrap;html=1;fontSize=16;fillColor=none;dashed=1;" vertex="1" parent="8mhyo6az43vuWWTLtNTB-20">
          <mxGeometry x="35" y="10" width="160" height="110" as="geometry" />
        </mxCell>
        <mxCell id="8mhyo6az43vuWWTLtNTB-11" value="" style="edgeStyle=orthogonalEdgeStyle;rounded=0;orthogonalLoop=1;jettySize=auto;html=1;fontSize=16;strokeWidth=2;" edge="1" parent="8mhyo6az43vuWWTLtNTB-20" source="8mhyo6az43vuWWTLtNTB-4" target="8mhyo6az43vuWWTLtNTB-8">
          <mxGeometry relative="1" as="geometry" />
        </mxCell>
        <mxCell id="8mhyo6az43vuWWTLtNTB-9" value="&lt;font style=&quot;font-size: 14px;&quot;&gt;Local context&amp;nbsp; &amp;nbsp;Focus Layer&lt;/font&gt;" style="text;html=1;align=center;verticalAlign=middle;resizable=0;points=[];autosize=1;strokeColor=none;fillColor=none;fontSize=16;" vertex="1" parent="8mhyo6az43vuWWTLtNTB-20">
          <mxGeometry x="20" y="140" width="190" height="30" as="geometry" />
        </mxCell>
        <mxCell id="8mhyo6az43vuWWTLtNTB-17" value="Local Context Feature Generator" style="text;html=1;align=center;verticalAlign=middle;resizable=0;points=[];autosize=1;strokeColor=none;fillColor=none;fontSize=14;" vertex="1" parent="8mhyo6az43vuWWTLtNTB-20">
          <mxGeometry y="370" width="230" height="30" as="geometry" />
        </mxCell>
        <mxCell id="8mhyo6az43vuWWTLtNTB-21" value="" style="group" vertex="1" connectable="0" parent="1">
          <mxGeometry x="445" y="460" width="240" height="210" as="geometry" />
        </mxCell>
        <mxCell id="8mhyo6az43vuWWTLtNTB-18" value="" style="rounded=1;whiteSpace=wrap;html=1;dashed=1;fontSize=14;fillColor=none;" vertex="1" parent="8mhyo6az43vuWWTLtNTB-21">
          <mxGeometry x="40" width="160" height="170" as="geometry" />
        </mxCell>
        <mxCell id="8mhyo6az43vuWWTLtNTB-2" value="&lt;font style=&quot;font-size: 16px;&quot;&gt;BERT-SPC Input&lt;/font&gt;" style="rounded=1;whiteSpace=wrap;html=1;" vertex="1" parent="8mhyo6az43vuWWTLtNTB-21">
          <mxGeometry x="50" y="100" width="140" height="60" as="geometry" />
        </mxCell>
        <mxCell id="8mhyo6az43vuWWTLtNTB-5" value="BERT&lt;sup&gt;&lt;font style=&quot;font-size: 12px;&quot;&gt;g&lt;/font&gt;&lt;/sup&gt;" style="rounded=1;whiteSpace=wrap;html=1;fontSize=16;fillColor=#d5e8d4;strokeColor=#82b366;" vertex="1" parent="8mhyo6az43vuWWTLtNTB-21">
          <mxGeometry x="50" y="10" width="140" height="60" as="geometry" />
        </mxCell>
        <mxCell id="8mhyo6az43vuWWTLtNTB-13" value="" style="edgeStyle=orthogonalEdgeStyle;rounded=0;orthogonalLoop=1;jettySize=auto;html=1;fontSize=16;strokeWidth=2;" edge="1" parent="8mhyo6az43vuWWTLtNTB-21" source="8mhyo6az43vuWWTLtNTB-2" target="8mhyo6az43vuWWTLtNTB-5">
          <mxGeometry relative="1" as="geometry" />
        </mxCell>
        <mxCell id="8mhyo6az43vuWWTLtNTB-19" value="Global Context Feature Generator" style="text;html=1;align=center;verticalAlign=middle;resizable=0;points=[];autosize=1;strokeColor=none;fillColor=none;fontSize=14;" vertex="1" parent="8mhyo6az43vuWWTLtNTB-21">
          <mxGeometry y="180" width="240" height="30" as="geometry" />
        </mxCell>
        <mxCell id="8mhyo6az43vuWWTLtNTB-48" style="edgeStyle=orthogonalEdgeStyle;rounded=1;orthogonalLoop=1;jettySize=auto;html=1;fontSize=20;strokeWidth=2;" edge="1" parent="1" source="8mhyo6az43vuWWTLtNTB-22" target="8mhyo6az43vuWWTLtNTB-44">
          <mxGeometry relative="1" as="geometry" />
        </mxCell>
        <mxCell id="8mhyo6az43vuWWTLtNTB-22" value="&lt;font style=&quot;font-size: 16px;&quot;&gt;Aspect&lt;br&gt;Extractor&lt;/font&gt;" style="rounded=1;whiteSpace=wrap;html=1;fontSize=14;" vertex="1" parent="1">
          <mxGeometry x="550" y="270" width="90" height="90" as="geometry" />
        </mxCell>
        <mxCell id="8mhyo6az43vuWWTLtNTB-23" style="edgeStyle=orthogonalEdgeStyle;orthogonalLoop=1;jettySize=auto;html=1;entryX=0.5;entryY=1;entryDx=0;entryDy=0;fontSize=14;strokeWidth=2;rounded=1;" edge="1" parent="1" target="8mhyo6az43vuWWTLtNTB-22">
          <mxGeometry relative="1" as="geometry">
            <mxPoint x="565" y="460" as="sourcePoint" />
          </mxGeometry>
        </mxCell>
        <mxCell id="8mhyo6az43vuWWTLtNTB-35" value="" style="edgeStyle=orthogonalEdgeStyle;rounded=1;orthogonalLoop=1;jettySize=auto;html=1;fontSize=14;strokeWidth=2;" edge="1" parent="1" source="8mhyo6az43vuWWTLtNTB-25" target="8mhyo6az43vuWWTLtNTB-34">
          <mxGeometry relative="1" as="geometry" />
        </mxCell>
        <mxCell id="8mhyo6az43vuWWTLtNTB-43" value="&lt;span style=&quot;background-color: rgb(248, 249, 250);&quot;&gt;Feature Interactive Learning&lt;/span&gt;" style="edgeLabel;html=1;align=center;verticalAlign=middle;resizable=0;points=[];fontSize=14;" vertex="1" connectable="0" parent="8mhyo6az43vuWWTLtNTB-35">
          <mxGeometry x="0.36" relative="1" as="geometry">
            <mxPoint y="7" as="offset" />
          </mxGeometry>
        </mxCell>
        <mxCell id="8mhyo6az43vuWWTLtNTB-25" value="&lt;meta charset=&quot;utf-8&quot; style=&quot;font-size: 30px;&quot;&gt;&lt;span style=&quot;color: rgb(32, 33, 36); font-family: arial, sans-serif; font-size: 30px; font-style: normal; font-variant-ligatures: normal; font-variant-caps: normal; font-weight: 400; letter-spacing: normal; orphans: 2; text-indent: 0px; text-transform: none; widows: 2; word-spacing: 0px; -webkit-text-stroke-width: 0px; background-color: rgb(255, 255, 255); text-decoration-thickness: initial; text-decoration-style: initial; text-decoration-color: initial; float: none; display: inline !important;&quot;&gt;⊕&lt;/span&gt;" style="text;whiteSpace=wrap;html=1;fontSize=30;align=center;verticalAlign=middle;" vertex="1" parent="1">
          <mxGeometry x="290" y="210" width="30" height="30" as="geometry" />
        </mxCell>
        <mxCell id="8mhyo6az43vuWWTLtNTB-27" value="" style="edgeStyle=orthogonalEdgeStyle;curved=1;orthogonalLoop=1;jettySize=auto;html=1;fontSize=30;strokeWidth=2;" edge="1" parent="1" source="8mhyo6az43vuWWTLtNTB-14" target="8mhyo6az43vuWWTLtNTB-25">
          <mxGeometry relative="1" as="geometry" />
        </mxCell>
        <mxCell id="8mhyo6az43vuWWTLtNTB-28" value="&lt;font style=&quot;font-size: 14px;&quot;&gt;concatenate&lt;/font&gt;" style="text;html=1;align=center;verticalAlign=middle;resizable=0;points=[];autosize=1;strokeColor=none;fillColor=none;fontSize=30;" vertex="1" parent="1">
          <mxGeometry x="200" y="200" width="100" height="50" as="geometry" />
        </mxCell>
        <mxCell id="8mhyo6az43vuWWTLtNTB-31" style="edgeStyle=orthogonalEdgeStyle;orthogonalLoop=1;jettySize=auto;html=1;entryX=1;entryY=0.5;entryDx=0;entryDy=0;fontSize=14;strokeWidth=2;rounded=1;exitX=0.5;exitY=0;exitDx=0;exitDy=0;" edge="1" parent="1" source="8mhyo6az43vuWWTLtNTB-18" target="8mhyo6az43vuWWTLtNTB-25">
          <mxGeometry relative="1" as="geometry">
            <Array as="points">
              <mxPoint x="565" y="430" />
              <mxPoint x="480" y="430" />
              <mxPoint x="480" y="225" />
            </Array>
          </mxGeometry>
        </mxCell>
        <mxCell id="8mhyo6az43vuWWTLtNTB-32" value="global context feature" style="edgeLabel;html=1;align=center;verticalAlign=middle;resizable=0;points=[];fontSize=14;horizontal=0;" vertex="1" connectable="0" parent="8mhyo6az43vuWWTLtNTB-31">
          <mxGeometry x="0.0958" y="-1" relative="1" as="geometry">
            <mxPoint x="14" y="48" as="offset" />
          </mxGeometry>
        </mxCell>
        <mxCell id="8mhyo6az43vuWWTLtNTB-33" value="local context feature" style="edgeLabel;html=1;align=center;verticalAlign=middle;resizable=0;points=[];fontSize=14;horizontal=1;" vertex="1" connectable="0" parent="1">
          <mxGeometry x="370" y="260" as="geometry" />
        </mxCell>
        <mxCell id="8mhyo6az43vuWWTLtNTB-37" value="" style="edgeStyle=orthogonalEdgeStyle;rounded=1;orthogonalLoop=1;jettySize=auto;html=1;fontSize=14;strokeWidth=2;" edge="1" parent="1" source="8mhyo6az43vuWWTLtNTB-34" target="8mhyo6az43vuWWTLtNTB-36">
          <mxGeometry relative="1" as="geometry" />
        </mxCell>
        <mxCell id="8mhyo6az43vuWWTLtNTB-34" value="Output features" style="rounded=1;whiteSpace=wrap;html=1;fontSize=16;glass=0;" vertex="1" parent="1">
          <mxGeometry x="210" y="130" width="190" height="40" as="geometry" />
        </mxCell>
        <mxCell id="8mhyo6az43vuWWTLtNTB-36" value="Polarity Extractor" style="rounded=1;whiteSpace=wrap;html=1;fontSize=16;glass=0;" vertex="1" parent="1">
          <mxGeometry x="210" y="70" width="190" height="40" as="geometry" />
        </mxCell>
        <mxCell id="8mhyo6az43vuWWTLtNTB-44" value="&lt;font style=&quot;font-size: 20px;&quot;&gt;&lt;b&gt;Aspect Term&lt;/b&gt;&lt;/font&gt;" style="text;html=1;align=center;verticalAlign=middle;resizable=0;points=[];autosize=1;strokeColor=none;fillColor=none;fontSize=14;" vertex="1" parent="1">
          <mxGeometry x="525" y="-10" width="140" height="40" as="geometry" />
        </mxCell>
        <mxCell id="8mhyo6az43vuWWTLtNTB-45" value="&lt;font style=&quot;font-size: 20px;&quot;&gt;&lt;b&gt;Polarity&lt;/b&gt;&lt;/font&gt;" style="text;html=1;align=center;verticalAlign=middle;resizable=0;points=[];autosize=1;strokeColor=none;fillColor=none;fontSize=14;" vertex="1" parent="1">
          <mxGeometry x="255" y="-10" width="100" height="40" as="geometry" />
        </mxCell>
      </root>
    </mxGraphModel>
  </diagram>
</mxfile>
